<svg width="512" height="512" viewBox="0 0 512 512" fill="none" xmlns="http://www.w3.org/2000/svg">
  <circle cx="256" cy="256" r="256" fill="black"/>
  <path d="M256 120C180 120 120 180 120 256C120 332 180 392 256 392C332 392 392 332 392 256C392 180 332 120 256 120ZM256 360C198 360 152 314 152 256C152 198 198 152 256 152C314 152 360 198 360 256C360 314 314 360 256 360Z" fill="white"/>
  <path d="M256 184C215.2 184 184 215.2 184 256C184 296.8 215.2 328 256 328C296.8 328 328 296.8 328 256C328 215.2 296.8 184 256 184ZM256 296C233.6 296 216 278.4 216 256C216 233.6 233.6 216 256 216C278.4 216 296 233.6 296 256C296 278.4 278.4 296 256 296Z" fill="white"/>
</svg>